<svg width="295" height="155" viewBox="0 0 295 155" fill="none" xmlns="http://www.w3.org/2000/svg">
<path d="M88.7852 86.8984C88.4883 86.8828 88.1992 86.8594 87.918 86.8281C87.6836 86.7969 87.4492 86.7734 87.2148 86.7578C86.9961 86.7422 86.832 86.7344 86.7227 86.7344C86.1133 86.7344 85.5039 86.7422 84.8945 86.7578C84.2852 86.7891 83.6836 86.8359 83.0898 86.8984C83.1055 86.2422 83.1133 85.6016 83.1133 84.9766C83.1289 84.3359 83.1367 83.6875 83.1367 83.0312C83.1367 81.8594 83.1133 80.6953 83.0664 79.5391C83.0352 78.3828 83.0039 77.2266 82.9727 76.0703L78.0508 87.2031C77.332 85.25 76.5586 83.3359 75.7305 81.4609C74.918 79.5703 74.0664 77.6875 73.1758 75.8125L73.5508 87.3906C73.3789 87.3906 73.1992 87.3828 73.0117 87.3672C72.8398 87.3672 72.6602 87.3672 72.4727 87.3672C71.8789 87.3672 71.293 87.3906 70.7148 87.4375C70.1523 87.4844 69.582 87.5312 69.0039 87.5781C69.082 86.125 69.1602 84.6797 69.2383 83.2422C69.3164 81.8047 69.3555 80.3594 69.3555 78.9062C69.3555 77.2031 69.3398 75.5078 69.3086 73.8203C69.293 72.1328 69.2773 70.4375 69.2617 68.7344C70.3867 68.7344 71.4805 68.7031 72.543 68.6406C73.6211 68.5781 74.7227 68.4922 75.8477 68.3828C76.2227 69.6328 76.6055 70.875 76.9961 72.1094C77.4023 73.3281 77.832 74.5469 78.2852 75.7656C78.7695 74.6094 79.3164 73.4766 79.9258 72.3672C80.5508 71.2578 81.1836 70.1562 81.8242 69.0625C82.8867 69.0312 83.9336 69 84.9648 68.9688C86.0117 68.9375 87.0664 68.9141 88.1289 68.8984C88.1758 70.3047 88.2305 71.6953 88.293 73.0703C88.3711 74.4453 88.4414 75.8359 88.5039 77.2422C88.5508 78.3516 88.5898 79.4609 88.6211 80.5703C88.668 81.6797 88.707 82.7812 88.7383 83.875L88.7852 85.8438V86.8984ZM108.285 75.9297C108.285 77.2422 108.238 78.5469 108.145 79.8438C108.051 81.1406 107.957 82.4375 107.863 83.7344C106.113 83.8906 104.371 84.0234 102.637 84.1328C100.902 84.2422 99.1602 84.2969 97.4102 84.2969C97.2539 84.2969 96.9648 84.2969 96.543 84.2969C96.1211 84.2812 95.6758 84.2656 95.207 84.25C94.7383 84.2188 94.293 84.1875 93.8711 84.1562C93.4492 84.1094 93.168 84.0469 93.0273 83.9688C92.5117 83.6875 92.1523 83.3359 91.9492 82.9141C91.7461 82.4766 91.6445 81.9844 91.6445 81.4375C91.6445 81.25 91.6523 81 91.668 80.6875C91.6836 80.375 91.7148 80.0469 91.7617 79.7031C91.8086 79.3594 91.8711 79.0391 91.9492 78.7422C92.0273 78.4453 92.1211 78.2266 92.2305 78.0859C92.3711 77.8984 92.6914 77.7422 93.1914 77.6172C93.6914 77.4766 94.2852 77.3672 94.9727 77.2891C95.6758 77.2109 96.4258 77.1484 97.2227 77.1016C98.0352 77.0547 98.8086 77.0234 99.543 77.0078C100.277 76.9766 100.934 76.9609 101.512 76.9609C102.09 76.9609 102.504 76.9609 102.754 76.9609C102.801 76.6172 102.824 76.2812 102.824 75.9531C102.824 75.9219 102.824 75.8438 102.824 75.7188C102.824 75.5781 102.816 75.4922 102.801 75.4609C102.754 75.3672 102.605 75.2891 102.355 75.2266C102.105 75.1641 101.793 75.1172 101.418 75.0859C101.059 75.0547 100.66 75.0312 100.223 75.0156C99.8008 74.9844 99.3867 74.9688 98.9805 74.9688C98.5742 74.9688 98.2148 74.9688 97.9023 74.9688C97.5898 74.9688 97.3633 74.9688 97.2227 74.9688C96.2383 74.9688 95.2539 74.9922 94.2695 75.0391C93.2852 75.0703 92.3008 75.1016 91.3164 75.1328C91.3789 74.5391 91.4258 73.9375 91.457 73.3281C91.5039 72.7188 91.5117 72.1172 91.4805 71.5234C92.6211 71.3203 93.7617 71.1797 94.9023 71.1016C96.0586 71.0078 97.2227 70.9609 98.3945 70.9609C98.8164 70.9609 99.2773 70.9688 99.7773 70.9844C100.277 70.9844 100.777 71 101.277 71.0312C101.777 71.0469 102.27 71.0781 102.754 71.125C103.254 71.1719 103.715 71.2344 104.137 71.3125C104.574 71.3906 105.004 71.5312 105.426 71.7344C105.863 71.9375 106.27 72.1875 106.645 72.4844C107.02 72.7812 107.348 73.125 107.629 73.5156C107.91 73.8906 108.113 74.2969 108.238 74.7344C108.254 74.7812 108.262 74.8594 108.262 74.9688C108.277 75.0781 108.285 75.2031 108.285 75.3438C108.285 75.4688 108.285 75.5859 108.285 75.6953C108.285 75.8047 108.285 75.8828 108.285 75.9297ZM103.059 81.4375V78.4375C102.605 78.4219 102.152 78.4141 101.699 78.4141C101.246 78.3984 100.793 78.3906 100.34 78.3906C100.246 78.3906 99.9805 78.3984 99.543 78.4141C99.1211 78.4141 98.6602 78.4297 98.1602 78.4609C97.6758 78.4922 97.2305 78.5312 96.8242 78.5781C96.418 78.625 96.1836 78.6953 96.1211 78.7891C96.043 78.9141 95.9883 79.0469 95.957 79.1875C95.9414 79.3125 95.9336 79.4453 95.9336 79.5859C95.9336 79.6953 95.9414 79.8438 95.957 80.0312C95.9727 80.2188 95.9961 80.4141 96.0273 80.6172C96.0742 80.8203 96.1211 81.0078 96.168 81.1797C96.2148 81.3516 96.2773 81.4766 96.3555 81.5547C96.418 81.6328 96.5195 81.6953 96.6602 81.7422C96.8164 81.7734 96.9805 81.8047 97.1523 81.8359C97.3242 81.8516 97.4961 81.8672 97.668 81.8828C97.8398 81.8828 97.9727 81.8828 98.0664 81.8828C98.4414 81.8828 98.8398 81.8672 99.2617 81.8359C99.6992 81.8047 100.137 81.7734 100.574 81.7422C101.027 81.6953 101.465 81.6484 101.887 81.6016C102.309 81.5391 102.699 81.4844 103.059 81.4375ZM127.387 78.5078C127.387 78.7266 127.379 78.9688 127.363 79.2344C127.363 79.4844 127.34 79.7422 127.293 80.0078C127.262 80.2734 127.207 80.5312 127.129 80.7812C127.066 81.0156 126.973 81.2266 126.848 81.4141C126.582 81.8047 126.332 82.1406 126.098 82.4219C125.863 82.6875 125.605 82.9141 125.324 83.1016C125.059 83.2734 124.754 83.4141 124.41 83.5234C124.066 83.6328 123.66 83.7188 123.191 83.7812C122.488 83.8906 121.793 83.9922 121.105 84.0859C120.418 84.1641 119.723 84.2031 119.02 84.2031C118.707 84.2031 118.387 84.1875 118.059 84.1562C117.73 84.125 117.426 84.0234 117.145 83.8516C116.988 83.7734 116.816 83.6719 116.629 83.5469C116.457 83.4062 116.285 83.2656 116.113 83.125C115.941 82.9688 115.77 82.8203 115.598 82.6797C115.441 82.5234 115.301 82.3906 115.176 82.2812L115.035 88.1641C114.598 88.1953 114.16 88.2031 113.723 88.1875C113.285 88.1875 112.84 88.1875 112.387 88.1875C112.121 88.1875 111.863 88.1875 111.613 88.1875C111.379 88.2031 111.129 88.2188 110.863 88.2344C110.926 86.8906 110.98 85.5547 111.027 84.2266C111.09 82.8828 111.121 81.5469 111.121 80.2188V79.9375C111.121 78.4531 111.082 76.9766 111.004 75.5078C110.926 74.0391 110.855 72.5625 110.793 71.0781C111.574 71.0156 112.348 70.9609 113.113 70.9141C113.879 70.8672 114.652 70.8125 115.434 70.75L115.598 71.9922C116.676 71.8672 117.754 71.7656 118.832 71.6875C119.926 71.5938 121.02 71.5469 122.113 71.5469C122.254 71.5469 122.402 71.5469 122.559 71.5469C122.73 71.5312 122.887 71.5391 123.027 71.5703C123.402 71.6484 123.785 71.75 124.176 71.875C124.566 71.9844 124.934 72.1328 125.277 72.3203C125.621 72.5078 125.926 72.75 126.191 73.0469C126.457 73.3281 126.66 73.6719 126.801 74.0781C126.895 74.3906 126.98 74.7344 127.059 75.1094C127.137 75.4844 127.199 75.875 127.246 76.2812C127.293 76.6719 127.324 77.0625 127.34 77.4531C127.371 77.8281 127.387 78.1797 127.387 78.5078ZM122.77 78.0859C122.77 77.8984 122.754 77.6953 122.723 77.4766C122.691 77.2578 122.613 77.0781 122.488 76.9375C122.176 76.5781 121.785 76.3047 121.316 76.1172C120.848 75.9141 120.387 75.8125 119.934 75.8125C119.559 75.8125 119.152 75.8516 118.715 75.9297C118.277 75.9922 117.84 76.0859 117.402 76.2109C116.965 76.3203 116.535 76.4531 116.113 76.6094C115.691 76.75 115.309 76.8906 114.965 77.0312L115.176 80.1719C115.754 80.3438 116.371 80.5 117.027 80.6406C117.699 80.7812 118.332 80.8516 118.926 80.8516C119.082 80.8516 119.324 80.8594 119.652 80.875C119.98 80.875 120.316 80.8672 120.66 80.8516C121.02 80.8203 121.348 80.7812 121.645 80.7344C121.957 80.6875 122.16 80.6016 122.254 80.4766C122.332 80.3828 122.402 80.2344 122.465 80.0312C122.527 79.8125 122.582 79.5859 122.629 79.3516C122.676 79.1016 122.707 78.8672 122.723 78.6484C122.754 78.4141 122.77 78.2266 122.77 78.0859ZM143.418 74.1484C142.059 74.2266 140.715 74.2891 139.387 74.3359C138.074 74.3828 136.746 74.4688 135.402 74.5938L135.59 76.6094L139.48 76.8672L140.137 79.2109C139.434 79.3672 138.723 79.4922 138.004 79.5859C137.301 79.6641 136.598 79.7734 135.895 79.9141C136.051 81.0859 136.16 82.2578 136.223 83.4297C136.285 84.5859 136.316 85.75 136.316 86.9219L130.152 87.1328C130.23 85.3047 130.277 83.4922 130.293 81.6953C130.309 79.8828 130.316 78.0625 130.316 76.2344V74.1484V69.4375C131.223 69.4219 132.113 69.4062 132.988 69.3906C133.879 69.3594 134.777 69.3438 135.684 69.3438C136.902 69.3438 138.121 69.375 139.34 69.4375C140.559 69.4844 141.785 69.5391 143.02 69.6016C143.113 70.3516 143.199 71.1094 143.277 71.875C143.371 72.625 143.418 73.3828 143.418 74.1484ZM150.449 68.4766C150.324 69.9922 150.199 71.5 150.074 73C149.965 74.5 149.871 76.0078 149.793 77.5234C149.715 78.8984 149.629 80.2656 149.535 81.625C149.457 82.9688 149.379 84.3281 149.301 85.7031L145.715 85.8906C145.715 84.4688 145.715 83.0625 145.715 81.6719C145.73 80.2656 145.723 78.8516 145.691 77.4297C145.66 76.0078 145.598 74.6016 145.504 73.2109C145.41 71.8047 145.316 70.3906 145.223 68.9688L150.449 68.4766ZM169.785 77.2188C169.785 77.3438 169.785 77.4688 169.785 77.5938C169.785 77.7031 169.777 77.8203 169.762 77.9453C169.746 78.1641 169.707 78.5234 169.645 79.0234C169.582 79.5234 169.496 80.0469 169.387 80.5938C169.277 81.125 169.145 81.6172 168.988 82.0703C168.832 82.5234 168.66 82.8125 168.473 82.9375C168.379 83 168.059 83.0547 167.512 83.1016C166.98 83.1484 166.324 83.1953 165.543 83.2422C164.777 83.2891 163.941 83.3281 163.035 83.3594C162.129 83.3906 161.262 83.4219 160.434 83.4531C159.621 83.4688 158.902 83.4844 158.277 83.5C157.668 83.5156 157.262 83.5234 157.059 83.5234C156.965 83.5234 156.801 83.5234 156.566 83.5234C156.348 83.5234 156.113 83.5234 155.863 83.5234C155.613 83.5078 155.379 83.4922 155.16 83.4766C154.941 83.4609 154.785 83.4375 154.691 83.4062C154.473 83.3281 154.254 83.2031 154.035 83.0312C153.816 82.8438 153.613 82.6406 153.426 82.4219C153.238 82.1875 153.066 81.9531 152.91 81.7188C152.77 81.4688 152.668 81.2344 152.605 81.0156C152.559 80.8438 152.52 80.5859 152.488 80.2422C152.457 79.8828 152.434 79.5156 152.418 79.1406C152.402 78.75 152.387 78.375 152.371 78.0156C152.371 77.6562 152.371 77.3828 152.371 77.1953C152.371 76.8984 152.379 76.4922 152.395 75.9766C152.41 75.4453 152.457 74.9062 152.535 74.3594C152.613 73.8125 152.723 73.3047 152.863 72.8359C153.02 72.3516 153.238 72.0156 153.52 71.8281C153.645 71.75 153.879 71.6797 154.223 71.6172C154.566 71.5547 154.973 71.5 155.441 71.4531C155.91 71.4062 156.41 71.375 156.941 71.3594C157.473 71.3281 157.988 71.3125 158.488 71.3125C159.004 71.2969 159.48 71.2891 159.918 71.2891C160.355 71.2891 160.707 71.2969 160.973 71.3125C161.207 71.3281 161.543 71.3438 161.98 71.3594C162.418 71.3594 162.902 71.3672 163.434 71.3828C163.98 71.3984 164.543 71.4297 165.121 71.4766C165.699 71.5078 166.238 71.5547 166.738 71.6172C167.238 71.6797 167.676 71.7656 168.051 71.875C168.441 71.9688 168.699 72.0859 168.824 72.2266C169.027 72.4453 169.191 72.7734 169.316 73.2109C169.441 73.6484 169.535 74.1172 169.598 74.6172C169.676 75.1016 169.723 75.5859 169.738 76.0703C169.77 76.5391 169.785 76.9219 169.785 77.2188ZM164.816 77.7109C164.816 77.5234 164.809 77.3047 164.793 77.0547C164.777 76.8047 164.754 76.5547 164.723 76.3047C164.691 76.0391 164.645 75.7891 164.582 75.5547C164.52 75.3047 164.441 75.1016 164.348 74.9453C164.223 74.7422 163.98 74.5859 163.621 74.4766C163.262 74.3672 162.863 74.2891 162.426 74.2422C162.004 74.1797 161.582 74.1406 161.16 74.125C160.754 74.1094 160.449 74.1016 160.246 74.1016C160.137 74.1016 159.941 74.1094 159.66 74.125C159.379 74.125 159.082 74.1328 158.77 74.1484C158.473 74.1641 158.191 74.1953 157.926 74.2422C157.66 74.2734 157.488 74.3125 157.41 74.3594C157.27 74.4531 157.16 74.6016 157.082 74.8047C157.004 74.9922 156.941 75.2031 156.895 75.4375C156.863 75.6719 156.84 75.9062 156.824 76.1406C156.824 76.3594 156.824 76.5391 156.824 76.6797C156.824 76.8203 156.832 77.0781 156.848 77.4531C156.879 77.8125 156.91 78.2031 156.941 78.625C156.988 79.0312 157.043 79.4062 157.105 79.75C157.168 80.0938 157.246 80.3125 157.34 80.4062C157.449 80.5312 157.652 80.6328 157.949 80.7109C158.262 80.7891 158.59 80.8594 158.934 80.9219C159.293 80.9688 159.637 81.0078 159.965 81.0391C160.293 81.0547 160.527 81.0625 160.668 81.0625C160.918 81.0625 161.215 81.0547 161.559 81.0391C161.902 81.0234 162.246 80.9844 162.59 80.9219C162.949 80.8594 163.285 80.7734 163.598 80.6641C163.91 80.5547 164.16 80.4062 164.348 80.2188C164.457 80.1094 164.543 79.9453 164.605 79.7266C164.668 79.5078 164.715 79.2734 164.746 79.0234C164.777 78.7734 164.793 78.5312 164.793 78.2969C164.809 78.0469 164.816 77.8516 164.816 77.7109ZM191.816 70.5156C191.363 72.7188 190.926 74.9141 190.504 77.1016C190.098 79.2891 189.66 81.4844 189.191 83.6875L184.316 83.7344L182.535 77.4062L178.457 83.7344L173.137 84.1328C173.012 83.0547 172.879 81.9688 172.738 80.875C172.598 79.7812 172.441 78.6953 172.27 77.6172C172.098 76.4922 171.926 75.3828 171.754 74.2891C171.582 73.1797 171.41 72.0703 171.238 70.9609L176.066 70.8203L177.613 78.1562C177.926 77.4531 178.246 76.7578 178.574 76.0703C178.902 75.3828 179.23 74.6875 179.559 73.9844C179.902 73.2031 180.277 72.4609 180.684 71.7578L183.332 71.8047C183.785 72.9453 184.223 74.0859 184.645 75.2266C185.082 76.3516 185.551 77.4688 186.051 78.5781C186.332 77.8281 186.574 77.1328 186.777 76.4922C186.996 75.8359 187.191 75.1953 187.363 74.5703C187.535 73.9297 187.699 73.2812 187.855 72.625C188.012 71.9531 188.168 71.2266 188.324 70.4453L191.816 70.5156Z" fill="white"/>
<path d="M205.796 75.5645C209.857 75.5645 220.562 85.068 220.562 85.068H196.198C196.198 85.068 201.736 75.5645 205.796 75.5645Z" fill="#4A6FFE"/>
<path d="M218.939 72.0439C221.376 72.0439 227.799 77.7461 227.799 77.7461H213.18C213.18 77.7461 216.503 72.0439 218.939 72.0439Z" fill="#FED94A"/>
<path d="M209.251 69.9316C210.712 69.9316 214.566 73.3529 214.566 73.3529H205.795C205.795 73.3529 207.789 69.9316 209.251 69.9316Z" fill="#E2FF3C"/>
</svg>
