<svg width="1454" height="671" viewBox="0 0 1454 671" fill="none" xmlns="http://www.w3.org/2000/svg">
<g filter="url(#filter0_d_51_36)">
<g clip-path="url(#clip0_51_36)">
<rect width="1440" height="657" transform="translate(7)" fill="#333333"/>
<rect width="1440" height="657" transform="translate(7)" fill="url(#paint0_linear_51_36)" fill-opacity="0.2" style="mix-blend-mode:darken"/>
<g filter="url(#filter1_ifn_51_36)">
<path d="M737.8 168.23L758.401 162.175L823.839 205.238H875.947L1025 304.822L1505 310.204V519H-411L-402.973 341.541L-395.531 340.936L-182.106 202.046L-96.9718 232.245L5.10562 186.806L32.3866 193.361L102.454 157.953L151.483 147.886L232.141 123.093L406 168.23L516.038 144.007L565.723 151.409L662.15 107L737.8 168.23Z" fill="#C8F55A"/>
<path d="M737.8 168.23L758.401 162.175L823.839 205.238H875.947L1025 304.822L1505 310.204V519H-411L-402.973 341.541L-395.531 340.936L-182.106 202.046L-96.9718 232.245L5.10562 186.806L32.3866 193.361L102.454 157.953L151.483 147.886L232.141 123.093L406 168.23L516.038 144.007L565.723 151.409L662.15 107L737.8 168.23Z" fill="url(#paint1_linear_51_36)" style="mix-blend-mode:darken"/>
</g>
<g filter="url(#filter2_ifn_51_36)">
<path d="M1604.81 223.696L1639.96 206.494L1705.4 238.987L1732.07 233.253L1812.05 249.818L1859.32 285.498H1899.31L1936.42 315H1949V504.5H261L503 340.5L539 331.089L592.861 260.649H613.464L647.397 238.987L675.271 246.633L743.139 210.316H756.47L827.974 186.105L888.569 210.316L899.477 206.494L950.378 228.156L995.219 210.316L1067.93 242.173L1078.84 238.987L1220.64 257.464L1259.42 238.987L1363.64 228.156L1402.42 206.494L1418.18 203.308L1470.29 174L1604.81 223.696Z" fill="#FED94A"/>
<path d="M1604.81 223.696L1639.96 206.494L1705.4 238.987L1732.07 233.253L1812.05 249.818L1859.32 285.498H1899.31L1936.42 315H1949V504.5H261L503 340.5L539 331.089L592.861 260.649H613.464L647.397 238.987L675.271 246.633L743.139 210.316H756.47L827.974 186.105L888.569 210.316L899.477 206.494L950.378 228.156L995.219 210.316L1067.93 242.173L1078.84 238.987L1220.64 257.464L1259.42 238.987L1363.64 228.156L1402.42 206.494L1418.18 203.308L1470.29 174L1604.81 223.696Z" fill="url(#paint2_linear_51_36)" style="mix-blend-mode:darken"/>
</g>
<g filter="url(#filter3_in_51_36)">
<path d="M106.495 444.78L-93 507.5V775.5L1704 771V366L1657.79 354.107L1620.28 358.101L1554.7 347.463L1530.47 347.782L1492.8 340.278L1408.24 360.892L1391.18 353.116L1354.72 345.096L1335.18 334.352L1248.81 308.987L1196.91 324.671L1085.52 332.638L1018.6 312.018L960.304 302.284L906.754 349.075L824.577 379.863L773.637 381.917L730.162 397.799L632.215 392.471L488.593 429.875L423.548 424.79L423.053 419.815L349.684 404.504L331.332 415.877L320.48 416.957L251.401 456.993L192.452 439.745L179.399 430.994L156.215 430.286L132.163 445.744L106.495 444.78Z" fill="#4A6FFE"/>
<path d="M106.495 444.78L-93 507.5V775.5L1704 771V366L1657.79 354.107L1620.28 358.101L1554.7 347.463L1530.47 347.782L1492.8 340.278L1408.24 360.892L1391.18 353.116L1354.72 345.096L1335.18 334.352L1248.81 308.987L1196.91 324.671L1085.52 332.638L1018.6 312.018L960.304 302.284L906.754 349.075L824.577 379.863L773.637 381.917L730.162 397.799L632.215 392.471L488.593 429.875L423.548 424.79L423.053 419.815L349.684 404.504L331.332 415.877L320.48 416.957L251.401 456.993L192.452 439.745L179.399 430.994L156.215 430.286L132.163 445.744L106.495 444.78Z" fill="url(#paint3_linear_51_36)" style="mix-blend-mode:darken"/>
</g>
<path d="M430.728 402.893C428.572 402.779 426.474 402.609 424.432 402.382C422.73 402.156 421.028 401.985 419.326 401.872C417.738 401.758 416.547 401.702 415.753 401.702C411.328 401.702 406.904 401.758 402.479 401.872C398.055 402.099 393.687 402.439 389.376 402.893C389.49 398.128 389.546 393.477 389.546 388.939C389.66 384.288 389.717 379.579 389.717 374.815C389.717 366.306 389.546 357.854 389.206 349.459C388.979 341.064 388.752 332.669 388.525 324.274L352.789 405.105C347.571 390.924 341.955 377.027 335.942 363.413C330.043 349.686 323.86 336.016 317.394 322.402L320.116 406.467C318.869 406.467 317.564 406.41 316.203 406.296C314.955 406.296 313.65 406.296 312.289 406.296C307.978 406.296 303.723 406.467 299.526 406.807C295.442 407.147 291.301 407.488 287.103 407.828C287.67 397.277 288.238 386.783 288.805 376.346C289.372 365.909 289.656 355.415 289.656 344.864C289.656 332.499 289.542 320.19 289.315 307.937C289.202 295.685 289.089 283.376 288.975 271.01C297.143 271.01 305.085 270.783 312.799 270.329C320.627 269.876 328.625 269.252 336.793 268.458C339.516 277.533 342.295 286.552 345.132 295.515C348.081 304.364 351.201 313.213 354.491 322.061C358.008 313.666 361.979 305.441 366.403 297.387C370.941 289.332 375.536 281.334 380.187 273.392C387.901 273.166 395.502 272.939 402.99 272.712C410.591 272.485 418.249 272.315 425.963 272.201C426.303 282.412 426.7 292.508 427.154 302.492C427.722 312.475 428.232 322.572 428.686 332.782C429.026 340.837 429.31 348.892 429.537 356.947C429.877 365.001 430.161 372.999 430.388 380.941L430.728 395.235V402.893ZM572.31 323.253C572.31 332.782 571.97 342.255 571.289 351.671C570.609 361.087 569.928 370.504 569.247 379.92C556.541 381.054 543.892 382.019 531.299 382.813C518.706 383.607 506.057 384.004 493.351 384.004C492.216 384.004 490.118 384.004 487.055 384.004C483.992 383.89 480.758 383.777 477.355 383.664C473.951 383.437 470.718 383.21 467.655 382.983C464.592 382.643 462.55 382.189 461.529 381.621C457.785 379.579 455.176 377.027 453.701 373.964C452.226 370.787 451.489 367.214 451.489 363.243C451.489 361.882 451.546 360.066 451.659 357.797C451.772 355.529 451.999 353.146 452.34 350.65C452.68 348.154 453.134 345.829 453.701 343.673C454.268 341.518 454.949 339.929 455.743 338.908C456.764 337.547 459.09 336.413 462.72 335.505C466.35 334.484 470.661 333.69 475.653 333.123C480.758 332.555 486.204 332.102 491.99 331.761C497.889 331.421 503.505 331.194 508.837 331.081C514.169 330.854 518.933 330.74 523.131 330.74C527.329 330.74 530.335 330.74 532.15 330.74C532.49 328.244 532.661 325.805 532.661 323.423C532.661 323.196 532.661 322.629 532.661 321.721C532.661 320.7 532.604 320.076 532.49 319.849C532.15 319.169 531.072 318.601 529.257 318.148C527.442 317.694 525.173 317.353 522.45 317.127C519.841 316.9 516.948 316.729 513.772 316.616C510.708 316.389 507.702 316.276 504.752 316.276C501.803 316.276 499.194 316.276 496.925 316.276C494.656 316.276 493.011 316.276 491.99 316.276C484.842 316.276 477.695 316.446 470.548 316.786C463.401 317.013 456.254 317.24 449.106 317.467C449.56 313.156 449.901 308.788 450.127 304.364C450.468 299.939 450.524 295.571 450.298 291.26C458.579 289.786 466.861 288.765 475.143 288.197C483.538 287.517 491.99 287.176 500.498 287.176C503.561 287.176 506.908 287.233 510.538 287.347C514.169 287.347 517.799 287.46 521.429 287.687C525.06 287.8 528.633 288.027 532.15 288.368C535.78 288.708 539.127 289.162 542.19 289.729C545.367 290.296 548.486 291.317 551.55 292.792C554.726 294.267 557.676 296.082 560.398 298.237C563.121 300.393 565.504 302.889 567.546 305.725C569.588 308.448 571.063 311.397 571.97 314.574C572.084 314.914 572.14 315.482 572.14 316.276C572.254 317.07 572.31 317.977 572.31 318.998C572.31 319.906 572.31 320.757 572.31 321.551C572.31 322.345 572.31 322.912 572.31 323.253ZM534.362 363.243V341.461C531.072 341.348 527.782 341.291 524.492 341.291C521.202 341.177 517.912 341.121 514.622 341.121C513.942 341.121 512.013 341.177 508.837 341.291C505.773 341.291 502.427 341.404 498.796 341.631C495.28 341.858 492.046 342.142 489.097 342.482C486.147 342.822 484.445 343.333 483.992 344.014C483.424 344.921 483.027 345.885 482.8 346.907C482.687 347.814 482.63 348.778 482.63 349.799C482.63 350.594 482.687 351.671 482.8 353.033C482.914 354.394 483.084 355.812 483.311 357.287C483.651 358.762 483.992 360.123 484.332 361.371C484.672 362.619 485.126 363.527 485.693 364.094C486.147 364.661 486.884 365.115 487.905 365.455C489.04 365.682 490.231 365.909 491.479 366.136C492.727 366.249 493.975 366.363 495.223 366.476C496.471 366.476 497.435 366.476 498.116 366.476C500.838 366.476 503.731 366.363 506.794 366.136C509.971 365.909 513.148 365.682 516.324 365.455C519.614 365.115 522.791 364.775 525.854 364.434C528.917 363.98 531.753 363.583 534.362 363.243ZM711 341.972C711 343.56 710.943 345.318 710.83 347.247C710.83 349.062 710.66 350.934 710.32 352.863C710.093 354.791 709.696 356.663 709.128 358.478C708.675 360.18 707.994 361.711 707.086 363.073C705.158 365.909 703.342 368.348 701.641 370.39C699.939 372.319 698.067 373.964 696.025 375.325C694.096 376.573 691.884 377.594 689.388 378.388C686.893 379.182 683.943 379.806 680.54 380.26C675.434 381.054 670.386 381.792 665.394 382.472C660.403 383.04 655.354 383.323 650.249 383.323C647.98 383.323 645.654 383.21 643.272 382.983C640.89 382.756 638.677 382.019 636.635 380.771C635.501 380.203 634.253 379.466 632.892 378.558C631.644 377.537 630.396 376.516 629.148 375.495C627.9 374.361 626.652 373.283 625.404 372.262C624.269 371.128 623.248 370.163 622.341 369.369L621.32 412.082C618.143 412.309 614.967 412.366 611.79 412.252C608.614 412.252 605.38 412.252 602.09 412.252C600.162 412.252 598.29 412.252 596.475 412.252C594.773 412.366 592.958 412.479 591.029 412.593C591.483 402.836 591.88 393.136 592.221 383.493C592.674 373.737 592.901 364.037 592.901 354.394V352.352C592.901 341.574 592.618 330.854 592.05 320.19C591.483 309.526 590.973 298.805 590.519 288.027C596.191 287.573 601.807 287.176 607.366 286.836C612.925 286.496 618.54 286.099 624.213 285.645L625.404 294.664C633.232 293.756 641.06 293.019 648.888 292.452C656.829 291.771 664.77 291.431 672.712 291.431C673.733 291.431 674.81 291.431 675.945 291.431C677.193 291.317 678.327 291.374 679.348 291.601C682.071 292.168 684.851 292.905 687.687 293.813C690.523 294.607 693.189 295.685 695.685 297.046C698.181 298.408 700.393 300.166 702.321 302.322C704.25 304.364 705.725 306.86 706.746 309.809C707.427 312.078 708.051 314.574 708.618 317.297C709.185 320.019 709.639 322.856 709.979 325.805C710.32 328.641 710.546 331.478 710.66 334.314C710.887 337.037 711 339.589 711 341.972ZM677.476 338.908C677.476 337.547 677.363 336.072 677.136 334.484C676.909 332.896 676.342 331.591 675.434 330.57C673.165 327.961 670.329 325.975 666.926 324.614C663.522 323.139 660.176 322.402 656.886 322.402C654.163 322.402 651.213 322.685 648.037 323.253C644.86 323.706 641.684 324.387 638.507 325.295C635.331 326.089 632.211 327.053 629.148 328.188C626.085 329.209 623.305 330.23 620.809 331.251L622.341 354.054C626.538 355.302 631.02 356.436 635.784 357.457C640.663 358.478 645.257 358.989 649.568 358.989C650.703 358.989 652.461 359.045 654.844 359.159C657.226 359.159 659.665 359.102 662.161 358.989C664.77 358.762 667.153 358.478 669.308 358.138C671.577 357.797 673.052 357.174 673.733 356.266C674.3 355.585 674.81 354.508 675.264 353.033C675.718 351.444 676.115 349.799 676.455 348.098C676.796 346.283 677.023 344.581 677.136 342.993C677.363 341.291 677.476 339.929 677.476 338.908ZM827.397 310.32C817.527 310.887 807.771 311.341 798.128 311.681C788.598 312.021 778.955 312.645 769.199 313.553L770.56 328.188L798.809 330.06L803.573 347.077C798.468 348.211 793.306 349.119 788.088 349.799C782.983 350.367 777.878 351.161 772.772 352.182C773.907 360.69 774.701 369.199 775.155 377.708C775.609 386.103 775.835 394.555 775.835 403.063L731.08 404.595C731.648 391.321 731.988 378.161 732.101 365.115C732.215 351.955 732.272 338.738 732.272 325.465V310.32V276.115C738.852 276.002 745.318 275.888 751.671 275.775C758.138 275.548 764.661 275.435 771.241 275.435C780.09 275.435 788.939 275.661 797.788 276.115C806.637 276.456 815.542 276.853 824.505 277.306C825.185 282.752 825.809 288.254 826.376 293.813C827.057 299.259 827.397 304.761 827.397 310.32ZM878.449 269.138C877.541 280.143 876.634 291.09 875.726 301.981C874.932 312.872 874.251 323.82 873.684 334.824C873.117 344.808 872.493 354.734 871.812 364.604C871.245 374.361 870.678 384.231 870.11 394.214L844.074 395.576C844.074 385.252 844.074 375.042 844.074 364.945C844.188 354.734 844.131 344.467 843.904 334.144C843.677 323.82 843.223 313.61 842.543 303.513C841.862 293.303 841.181 283.036 840.501 272.712L878.449 269.138ZM1018.84 332.612C1018.84 333.52 1018.84 334.427 1018.84 335.335C1018.84 336.129 1018.78 336.98 1018.67 337.887C1018.56 339.476 1018.27 342.085 1017.82 345.715C1017.37 349.346 1016.74 353.146 1015.95 357.117C1015.15 360.974 1014.19 364.548 1013.05 367.838C1011.92 371.128 1010.67 373.226 1009.31 374.134C1008.63 374.588 1006.3 374.985 1002.33 375.325C998.476 375.665 993.712 376.006 988.039 376.346C982.48 376.687 976.411 376.97 969.831 377.197C963.251 377.424 956.955 377.651 950.942 377.878C945.043 377.991 939.824 378.105 935.286 378.218C930.862 378.332 927.912 378.388 926.437 378.388C925.757 378.388 924.565 378.388 922.864 378.388C921.275 378.388 919.574 378.388 917.758 378.388C915.943 378.275 914.242 378.161 912.653 378.048C911.065 377.934 909.931 377.764 909.25 377.537C907.662 376.97 906.073 376.063 904.485 374.815C902.897 373.453 901.422 371.978 900.061 370.39C898.699 368.688 897.451 366.987 896.317 365.285C895.296 363.47 894.558 361.768 894.105 360.18C893.764 358.932 893.481 357.06 893.254 354.564C893.027 351.955 892.857 349.289 892.743 346.566C892.63 343.73 892.516 341.007 892.403 338.398C892.403 335.789 892.403 333.803 892.403 332.442C892.403 330.286 892.46 327.337 892.573 323.593C892.687 319.736 893.027 315.822 893.594 311.851C894.161 307.881 894.956 304.193 895.977 300.79C897.111 297.273 898.699 294.834 900.741 293.473C901.649 292.905 903.351 292.395 905.846 291.941C908.342 291.487 911.292 291.09 914.695 290.75C918.099 290.41 921.729 290.183 925.586 290.069C929.444 289.842 933.187 289.729 936.818 289.729C940.561 289.615 944.022 289.559 947.198 289.559C950.375 289.559 952.927 289.615 954.856 289.729C956.558 289.842 958.997 289.956 962.173 290.069C965.35 290.069 968.867 290.126 972.724 290.239C976.695 290.353 980.779 290.58 984.976 290.92C989.174 291.147 993.088 291.487 996.718 291.941C1000.35 292.395 1003.52 293.019 1006.25 293.813C1009.08 294.494 1010.96 295.345 1011.86 296.366C1013.34 297.954 1014.53 300.336 1015.44 303.513C1016.34 306.689 1017.03 310.093 1017.48 313.723C1018.05 317.24 1018.39 320.757 1018.5 324.274C1018.73 327.677 1018.84 330.457 1018.84 332.612ZM982.764 336.186C982.764 334.824 982.707 333.236 982.594 331.421C982.48 329.606 982.31 327.791 982.083 325.975C981.856 324.047 981.516 322.232 981.062 320.53C980.608 318.715 980.041 317.24 979.361 316.105C978.453 314.631 976.695 313.496 974.085 312.702C971.476 311.908 968.583 311.341 965.406 311C962.343 310.547 959.28 310.263 956.217 310.149C953.268 310.036 951.055 309.979 949.581 309.979C948.786 309.979 947.368 310.036 945.326 310.149C943.284 310.149 941.129 310.206 938.86 310.32C936.704 310.433 934.662 310.66 932.734 311C930.805 311.227 929.557 311.511 928.99 311.851C927.969 312.532 927.175 313.61 926.607 315.084C926.04 316.446 925.586 317.977 925.246 319.679C925.019 321.381 924.849 323.083 924.735 324.784C924.735 326.373 924.735 327.677 924.735 328.698C924.735 329.719 924.792 331.591 924.906 334.314C925.133 336.923 925.359 339.759 925.586 342.822C925.927 345.772 926.324 348.495 926.778 350.991C927.231 353.486 927.799 355.075 928.479 355.755C929.273 356.663 930.748 357.4 932.904 357.968C935.173 358.535 937.555 359.045 940.051 359.499C942.66 359.84 945.156 360.123 947.538 360.35C949.921 360.464 951.623 360.52 952.644 360.52C954.459 360.52 956.614 360.464 959.11 360.35C961.606 360.237 964.102 359.953 966.598 359.499C969.207 359.045 971.646 358.421 973.915 357.627C976.184 356.833 977.999 355.755 979.361 354.394C980.155 353.6 980.779 352.409 981.232 350.82C981.686 349.232 982.027 347.53 982.253 345.715C982.48 343.9 982.594 342.142 982.594 340.44C982.707 338.625 982.764 337.207 982.764 336.186ZM1178.8 283.943C1175.51 299.939 1172.33 315.879 1169.27 331.761C1166.32 347.644 1163.15 363.583 1159.74 379.579L1124.35 379.92L1111.41 333.973L1081.8 379.92L1043.17 382.813C1042.27 374.985 1041.3 367.1 1040.28 359.159C1039.26 351.218 1038.13 343.333 1036.88 335.505C1035.63 327.337 1034.38 319.282 1033.13 311.341C1031.89 303.286 1030.64 295.231 1029.39 287.176L1064.45 286.155L1075.68 339.419C1077.95 334.314 1080.27 329.265 1082.65 324.274C1085.04 319.282 1087.42 314.234 1089.8 309.128C1092.3 303.456 1095.02 298.067 1097.97 292.962L1117.2 293.303C1120.49 301.584 1123.67 309.866 1126.73 318.148C1129.91 326.316 1133.31 334.427 1136.94 342.482C1138.98 337.037 1140.74 331.988 1142.21 327.337C1143.8 322.572 1145.22 317.921 1146.47 313.383C1147.72 308.731 1148.91 304.023 1150.04 299.259C1151.18 294.38 1152.31 289.105 1153.45 283.433L1178.8 283.943Z" fill="white"/>
</g>
</g>
<defs>
<filter id="filter0_d_51_36" x="0" y="0" width="1454" height="671" filterUnits="userSpaceOnUse" color-interpolation-filters="sRGB">
<feFlood flood-opacity="0" result="BackgroundImageFix"/>
<feColorMatrix in="SourceAlpha" type="matrix" values="0 0 0 0 0 0 0 0 0 0 0 0 0 0 0 0 0 0 127 0" result="hardAlpha"/>
<feOffset dy="7"/>
<feGaussianBlur stdDeviation="3.5"/>
<feComposite in2="hardAlpha" operator="out"/>
<feColorMatrix type="matrix" values="0 0 0 0 0 0 0 0 0 0 0 0 0 0 0 0 0 0 0.25 0"/>
<feBlend mode="normal" in2="BackgroundImageFix" result="effect1_dropShadow_51_36"/>
<feBlend mode="normal" in="SourceGraphic" in2="effect1_dropShadow_51_36" result="shape"/>
</filter>
<filter id="filter1_ifn_51_36" x="-415" y="103" width="1924" height="420" filterUnits="userSpaceOnUse" color-interpolation-filters="sRGB">
<feFlood flood-opacity="0" result="BackgroundImageFix"/>
<feBlend mode="normal" in="SourceGraphic" in2="BackgroundImageFix" result="shape"/>
<feColorMatrix in="SourceAlpha" type="matrix" values="0 0 0 0 0 0 0 0 0 0 0 0 0 0 0 0 0 0 127 0" result="hardAlpha"/>
<feOffset dy="4"/>
<feGaussianBlur stdDeviation="7.5"/>
<feComposite in2="hardAlpha" operator="arithmetic" k2="-1" k3="1"/>
<feColorMatrix type="matrix" values="0 0 0 0 0.99953 0 0 0 0 0.99953 0 0 0 0 0.99953 0 0 0 0.25 0"/>
<feBlend mode="plus-lighter" in2="shape" result="effect1_innerShadow_51_36"/>
<feGaussianBlur stdDeviation="2" result="effect2_foregroundBlur_51_36"/>
<feTurbulence type="fractalNoise" baseFrequency="2 2" stitchTiles="stitch" numOctaves="3" result="noise" seed="7045" />
<feColorMatrix in="noise" type="luminanceToAlpha" result="alphaNoise" />
<feComponentTransfer in="alphaNoise" result="coloredNoise1">
<feFuncA type="discrete" tableValues="1 1 1 1 1 1 1 1 1 1 1 1 1 1 1 1 1 1 1 1 1 1 1 1 1 1 1 1 1 1 1 1 1 1 1 1 1 1 1 1 1 1 1 1 1 1 1 1 1 1 1 0 0 0 0 0 0 0 0 0 0 0 0 0 0 0 0 0 0 0 0 0 0 0 0 0 0 0 0 0 0 0 0 0 0 0 0 0 0 0 0 0 0 0 0 0 0 0 0 0 "/>
</feComponentTransfer>
<feComposite operator="in" in2="effect2_foregroundBlur_51_36" in="coloredNoise1" result="noise1Clipped" />
<feFlood flood-color="rgba(29, 196, 0, 0.25)" result="color1Flood" />
<feComposite operator="in" in2="noise1Clipped" in="color1Flood" result="color1" />
<feMerge result="effect3_noise_51_36">
<feMergeNode in="effect2_foregroundBlur_51_36" />
<feMergeNode in="color1" />
</feMerge>
</filter>
<filter id="filter2_ifn_51_36" x="260" y="173" width="1690" height="335.5" filterUnits="userSpaceOnUse" color-interpolation-filters="sRGB">
<feFlood flood-opacity="0" result="BackgroundImageFix"/>
<feBlend mode="normal" in="SourceGraphic" in2="BackgroundImageFix" result="shape"/>
<feColorMatrix in="SourceAlpha" type="matrix" values="0 0 0 0 0 0 0 0 0 0 0 0 0 0 0 0 0 0 127 0" result="hardAlpha"/>
<feOffset dy="4"/>
<feGaussianBlur stdDeviation="7.5"/>
<feComposite in2="hardAlpha" operator="arithmetic" k2="-1" k3="1"/>
<feColorMatrix type="matrix" values="0 0 0 0 0.99953 0 0 0 0 0.99953 0 0 0 0 0.99953 0 0 0 0.25 0"/>
<feBlend mode="plus-lighter" in2="shape" result="effect1_innerShadow_51_36"/>
<feGaussianBlur stdDeviation="0.5" result="effect2_foregroundBlur_51_36"/>
<feTurbulence type="fractalNoise" baseFrequency="2 2" stitchTiles="stitch" numOctaves="3" result="noise" seed="7045" />
<feColorMatrix in="noise" type="luminanceToAlpha" result="alphaNoise" />
<feComponentTransfer in="alphaNoise" result="coloredNoise1">
<feFuncA type="discrete" tableValues="1 1 1 1 1 1 1 1 1 1 1 1 1 1 1 1 1 1 1 1 1 1 1 1 1 1 1 1 1 1 1 1 1 1 1 1 1 1 1 1 1 1 1 1 1 1 1 1 1 1 1 0 0 0 0 0 0 0 0 0 0 0 0 0 0 0 0 0 0 0 0 0 0 0 0 0 0 0 0 0 0 0 0 0 0 0 0 0 0 0 0 0 0 0 0 0 0 0 0 0 "/>
</feComponentTransfer>
<feComposite operator="in" in2="effect2_foregroundBlur_51_36" in="coloredNoise1" result="noise1Clipped" />
<feFlood flood-color="rgba(247, 88, 88, 0.25)" result="color1Flood" />
<feComposite operator="in" in2="noise1Clipped" in="color1Flood" result="color1" />
<feMerge result="effect3_noise_51_36">
<feMergeNode in="effect2_foregroundBlur_51_36" />
<feMergeNode in="color1" />
</feMerge>
</filter>
<filter id="filter3_in_51_36" x="-93" y="302.284" width="1797" height="477.216" filterUnits="userSpaceOnUse" color-interpolation-filters="sRGB">
<feFlood flood-opacity="0" result="BackgroundImageFix"/>
<feBlend mode="normal" in="SourceGraphic" in2="BackgroundImageFix" result="shape"/>
<feColorMatrix in="SourceAlpha" type="matrix" values="0 0 0 0 0 0 0 0 0 0 0 0 0 0 0 0 0 0 127 0" result="hardAlpha"/>
<feOffset dy="4"/>
<feGaussianBlur stdDeviation="7.5"/>
<feComposite in2="hardAlpha" operator="arithmetic" k2="-1" k3="1"/>
<feColorMatrix type="matrix" values="0 0 0 0 0.99953 0 0 0 0 0.99953 0 0 0 0 0.99953 0 0 0 0.25 0"/>
<feBlend mode="plus-lighter" in2="shape" result="effect1_innerShadow_51_36"/>
<feTurbulence type="fractalNoise" baseFrequency="2 2" stitchTiles="stitch" numOctaves="3" result="noise" seed="7045" />
<feColorMatrix in="noise" type="luminanceToAlpha" result="alphaNoise" />
<feComponentTransfer in="alphaNoise" result="coloredNoise1">
<feFuncA type="discrete" tableValues="1 1 1 1 1 1 1 1 1 1 1 1 1 1 1 1 1 1 1 1 1 1 1 1 1 1 1 1 1 1 1 1 1 1 1 1 1 1 1 1 1 1 1 1 1 1 1 1 1 1 1 0 0 0 0 0 0 0 0 0 0 0 0 0 0 0 0 0 0 0 0 0 0 0 0 0 0 0 0 0 0 0 0 0 0 0 0 0 0 0 0 0 0 0 0 0 0 0 0 0 "/>
</feComponentTransfer>
<feComposite operator="in" in2="effect1_innerShadow_51_36" in="coloredNoise1" result="noise1Clipped" />
<feFlood flood-color="rgba(1, 15, 142, 0.25)" result="color1Flood" />
<feComposite operator="in" in2="noise1Clipped" in="color1Flood" result="color1" />
<feMerge result="effect2_noise_51_36">
<feMergeNode in="effect1_innerShadow_51_36" />
<feMergeNode in="color1" />
</feMerge>
</filter>
<linearGradient id="paint0_linear_51_36" x1="720" y1="0" x2="720" y2="167" gradientUnits="userSpaceOnUse">
<stop stop-color="#666666"/>
<stop offset="1"/>
</linearGradient>
<linearGradient id="paint1_linear_51_36" x1="263" y1="417" x2="261.53" y2="236.5" gradientUnits="userSpaceOnUse">
<stop stop-color="#70B100"/>
<stop offset="1" stop-color="#70B100" stop-opacity="0"/>
</linearGradient>
<linearGradient id="paint2_linear_51_36" x1="853.5" y1="349.5" x2="853.5" y2="233" gradientUnits="userSpaceOnUse">
<stop stop-color="#ED865A"/>
<stop offset="1" stop-color="#ED865A" stop-opacity="0"/>
</linearGradient>
<linearGradient id="paint3_linear_51_36" x1="537.76" y1="588" x2="537.76" y2="386.761" gradientUnits="userSpaceOnUse">
<stop stop-color="#0046D1"/>
<stop offset="1" stop-color="#0046D1" stop-opacity="0"/>
</linearGradient>
<clipPath id="clip0_51_36">
<rect width="1440" height="657" fill="white" transform="translate(7)"/>
</clipPath>
</defs>
</svg>
