<svg width="362" height="261" viewBox="0 0 362 261" fill="none" xmlns="http://www.w3.org/2000/svg">
<rect width="362" height="261" fill="#FEF4E8"/>
<g clip-path="url(#clip0_756_1394)">
<path d="M158.021 149.764C165.129 149.764 170.892 144.007 170.892 136.905C170.892 129.804 165.129 124.047 158.021 124.047C150.913 124.047 145.151 129.804 145.151 136.905C145.151 144.007 150.913 149.764 158.021 149.764Z" fill="#FA4516"/>
<path d="M239.546 144.269C239.546 167.867 214.632 187 183.906 187C153.18 187 128.266 167.867 128.266 144.269H239.546Z" fill="#FFB71C"/>
<path d="M247 104.471L180.898 141.312L180.263 140.318L243.824 99.5381L247 104.471Z" fill="#FFB71C"/>
<path d="M229.156 82.4529L176.632 136.905L175.745 136.151L224.674 78.6455L229.156 82.4529Z" fill="#FFB71C"/>
<path d="M169.885 148.268C183.091 150.183 176.356 149.836 168.124 152.279C162.923 152.865 173.816 153.404 169.717 153.883C173.085 154.685 161.233 154.781 165.511 155.583C161.844 156.218 149.765 156.409 148.219 155.918C145.45 155.739 153.995 155.463 150.531 155.116C157.614 154.889 150.591 154.625 146.529 154.338C145.894 154.051 159.915 153.727 151.538 153.38C151.251 153.033 144.803 152.662 145.918 152.267C157.854 151.249 151.251 150.04 144.156 148.256C141.064 147.573 148.422 146.58 145.906 144.245C159.735 143.371 163.102 142.521 150.52 141.395C158.117 140.533 162.431 140.246 157.015 140.306C154.115 140.306 158.585 140.402 159.22 140.593C172.605 141.12 151.73 142.03 160.634 143.67C159.927 144.017 172.402 143.922 171.299 145.155C167.764 146.041 171.143 146.436 167.381 147.166C171.982 147.513 163.342 147.873 169.885 148.244V148.268Z" fill="#FA4516"/>
<path d="M132.844 121.449C132.844 121.449 132.916 121.532 132.904 121.664C132.88 121.915 132.736 122.514 132.472 123.46C132.244 124.274 132.077 124.825 131.945 125.1C131.885 125.232 131.849 125.304 131.825 125.316C131.789 125.352 131.705 125.376 131.573 125.388C131.274 125.4 130.818 125.423 130.219 125.459C129.44 125.507 128.278 125.591 126.744 125.723C126.432 125.759 126.205 125.974 126.073 126.369C126.145 126.19 126.061 126.513 125.833 127.339C125.809 127.435 125.977 127.531 126.337 127.627C126.828 127.758 127.559 127.926 128.554 128.117C129.536 128.309 130.279 128.465 130.759 128.608C130.878 128.644 130.938 128.692 130.95 128.752C130.938 128.836 130.914 128.932 130.902 129.015C130.83 129.387 130.687 129.961 130.471 130.739C130.219 131.625 130.051 132.164 129.968 132.332C129.884 132.499 129.74 132.559 129.56 132.511C128.769 132.296 127.595 131.937 126.025 131.422C124.455 130.919 123.269 130.548 122.478 130.332C119.458 129.494 117.073 128.896 115.348 128.548L115.192 128.513C115.072 128.489 115.012 128.369 115.024 128.153C115.036 127.938 115.252 126.98 115.683 125.268C115.971 124.106 116.21 123.185 116.402 122.502C116.798 121.089 117.481 120.036 118.475 119.341C119.59 118.551 120.92 118.383 122.49 118.814C123.532 119.102 124.335 119.461 124.887 119.892C125.438 120.323 125.905 120.97 126.301 121.844C126.372 122.023 126.456 122.119 126.564 122.143C126.564 122.143 127.559 122.011 129.572 121.748C131.585 121.484 132.688 121.389 132.868 121.437L132.844 121.449ZM122.13 122.706C121.255 122.466 120.584 122.55 120.105 122.945C119.746 123.256 119.446 123.831 119.218 124.645C119.05 125.232 119.074 125.579 119.266 125.675C119.494 125.783 120.189 125.998 121.351 126.309C121.519 126.357 121.759 126.417 122.082 126.501C122.406 126.585 122.646 126.645 122.801 126.693C122.837 126.693 122.897 126.609 122.993 126.429C123.161 126.07 123.305 125.675 123.425 125.256C123.796 123.891 123.365 123.041 122.118 122.694L122.13 122.706Z" fill="black"/>
<path d="M138.212 108.53C138.452 108.733 138.859 109.164 139.435 109.799C140.058 110.493 140.417 110.924 140.489 111.116C140.549 111.272 140.525 111.391 140.441 111.499C140.405 111.547 140.333 111.607 140.225 111.703C139.866 112.014 138.943 113.032 137.457 114.756C137.134 115.127 136.654 115.69 136.007 116.42C135.36 117.162 134.881 117.713 134.557 118.084C134.413 118.24 134.27 118.252 134.102 118.12C133.479 117.581 132.556 116.731 131.346 115.594C130.135 114.444 129.213 113.606 128.589 113.067C127.954 112.517 126.732 111.523 124.934 110.086C124.467 109.715 123.772 109.164 122.849 108.434L122.729 108.338C122.598 108.242 122.586 108.123 122.693 107.991C123.005 107.632 123.484 107.093 124.131 106.387C124.779 105.68 125.258 105.141 125.569 104.782C125.881 104.423 126.324 103.884 126.924 103.142C127.523 102.4 127.966 101.861 128.278 101.502C128.493 101.25 128.733 101.19 128.985 101.346C129.141 101.43 129.56 101.729 130.255 102.244C130.95 102.759 131.37 103.07 131.513 103.19C131.633 103.286 131.645 103.393 131.561 103.489C131.537 103.513 131.489 103.573 131.418 103.633C130.171 104.83 129.105 105.944 128.218 106.973C127.99 107.237 127.93 107.452 128.014 107.632C128.062 107.716 128.266 107.907 128.625 108.23C129.009 108.554 129.308 108.721 129.512 108.733C129.692 108.733 129.884 108.626 130.075 108.398C130.123 108.35 130.195 108.254 130.303 108.099C130.411 107.955 130.519 107.823 130.591 107.74C131.118 107.117 131.633 106.482 132.137 105.824C132.172 105.764 132.28 105.62 132.436 105.381C132.556 105.189 132.664 105.058 132.748 104.962C132.844 104.842 132.963 104.842 133.095 104.962C132.975 104.866 133.371 105.273 134.27 106.207C134.689 106.638 135.12 107.033 135.564 107.428C135.672 107.524 135.672 107.644 135.552 107.787L134.905 108.374C134.629 108.626 134.066 109.248 133.215 110.23L132.544 111.008C132.376 111.212 132.328 111.379 132.412 111.511C132.436 111.547 132.604 111.691 132.927 111.966C133.359 112.337 133.646 112.541 133.814 112.601C134.102 112.696 134.497 112.493 135.001 111.99C135.001 111.99 135.3 111.643 135.923 110.924C136.151 110.661 136.451 110.254 136.834 109.703C137.218 109.152 137.517 108.745 137.745 108.482C137.841 108.374 137.985 108.41 138.188 108.578L138.212 108.53Z" fill="black"/>
<path d="M155.385 99.4424C155.385 99.4424 155.385 99.5621 155.277 99.6699C155.085 99.8734 154.522 100.292 153.611 100.927C152.832 101.478 152.281 101.825 151.97 101.981C151.826 102.052 151.742 102.088 151.706 102.088C151.658 102.088 151.562 102.052 151.43 101.969C151.155 101.765 150.747 101.454 150.208 101.059C149.501 100.532 148.422 99.7776 146.996 98.7958C146.697 98.6043 146.349 98.6282 145.942 98.8796C146.134 98.7719 145.822 98.9874 145.031 99.5501C144.947 99.61 145.031 99.8135 145.259 100.173C145.582 100.64 146.11 101.31 146.829 102.184C147.548 103.058 148.075 103.729 148.398 104.196C148.482 104.315 148.506 104.399 148.458 104.459C148.374 104.519 148.303 104.591 148.219 104.651C147.883 104.926 147.344 105.321 146.601 105.848C145.75 106.446 145.223 106.782 145.019 106.866C144.815 106.949 144.66 106.901 144.54 106.734C144.012 105.98 143.245 104.818 142.239 103.262C141.232 101.693 140.465 100.532 139.938 99.7776C137.913 96.8802 136.271 94.6652 135.013 93.1207L134.905 92.977C134.821 92.8693 134.857 92.7256 135.025 92.546C135.192 92.3664 136.067 91.6959 137.673 90.5106C138.752 89.7084 139.626 89.0858 140.286 88.6189C141.652 87.673 143.006 87.242 144.36 87.3498C145.894 87.4575 147.176 88.2717 148.231 89.7683C148.926 90.762 149.369 91.648 149.537 92.4263C149.705 93.1925 149.645 94.1025 149.369 95.1321C149.309 95.3357 149.309 95.4913 149.369 95.5871C149.369 95.5871 150.328 96.1857 152.269 97.407C154.211 98.6162 155.241 99.3226 155.361 99.4903L155.385 99.4424ZM145.175 92.8573C144.588 92.0192 143.941 91.6121 143.245 91.6241C142.706 91.6241 142.035 91.9234 141.244 92.4742C140.681 92.8693 140.441 93.1805 140.549 93.408C140.681 93.6714 141.124 94.3539 141.903 95.4554C142.011 95.611 142.179 95.8385 142.407 96.1498C142.622 96.4611 142.79 96.6886 142.898 96.8323C142.922 96.8682 143.042 96.8323 143.257 96.7365C143.665 96.5449 144.072 96.3055 144.468 96.0301C145.774 95.1202 146.014 94.0665 145.175 92.8693V92.8573Z" fill="black"/>
<path d="M161.401 87.1821C161.832 88.1879 162.491 89.6845 163.39 91.6959C164.289 93.6954 164.96 95.204 165.379 96.2097C165.451 96.3773 165.463 96.497 165.415 96.5689C165.415 96.5808 165.319 96.6407 165.152 96.7485C164.696 97.0238 164.061 97.3232 163.258 97.6704C162.18 98.1253 161.473 98.3887 161.149 98.4366C160.91 98.4726 160.754 98.3888 160.658 98.1852C160.718 98.3169 160.43 97.5626 159.807 95.8984C158.477 92.3903 157.578 90.0915 157.123 89.014C156.739 88.104 156.128 86.7511 155.301 84.9432C154.474 83.1353 153.875 81.7824 153.48 80.8724C153.396 80.6809 153.444 80.5611 153.611 80.4773C153.839 80.3815 154.199 80.2498 154.666 80.0703C155.145 79.9026 155.493 79.7709 155.721 79.6632C155.948 79.5674 156.284 79.4117 156.727 79.1962C157.171 78.9807 157.494 78.8251 157.734 78.7293C157.95 78.6335 158.093 78.6814 158.177 78.873C158.561 79.7829 159.1 81.1718 159.783 83.0276C160.466 84.8833 161.005 86.2722 161.401 87.1821Z" fill="black"/>
<path d="M183.654 89.457C183.678 89.6007 183.643 89.8162 183.523 90.0796C182.456 92.3544 180.718 93.7193 178.298 94.1982C175.829 94.6772 173.636 94.1025 171.719 92.4742C169.861 90.8937 168.651 88.6787 168.088 85.8292C167.548 83.0754 167.824 80.5851 168.915 78.3701C170.053 76.0593 171.791 74.6705 174.151 74.2155C176.716 73.7127 178.897 74.2155 180.707 75.748C180.898 75.9157 181.018 76.0833 181.042 76.227C181.078 76.3946 180.922 77.089 180.599 78.3102C180.263 79.5195 180.035 80.2139 179.928 80.3815C179.88 80.4654 179.808 80.5252 179.712 80.5372C179.676 80.5372 179.436 80.4055 179.005 80.1062C178.49 79.759 178.01 79.4956 177.543 79.3279C176.848 79.0885 176.165 79.0286 175.494 79.1603C174.331 79.3878 173.492 80.0703 173.001 81.2077C172.546 82.2613 172.45 83.4705 172.713 84.8355C172.989 86.2123 173.528 87.3138 174.355 88.116C175.254 89.002 176.285 89.3253 177.447 89.0978C178.13 88.9661 178.753 88.6668 179.304 88.1998C179.664 87.8885 180.011 87.4934 180.359 87.0025C180.635 86.5955 180.802 86.38 180.838 86.368C180.922 86.356 181.006 86.38 181.102 86.4757C181.258 86.6194 181.713 87.1103 182.468 87.9723C183.247 88.8703 183.643 89.3612 183.654 89.469V89.457Z" fill="black"/>
<path d="M202.121 89.912C202.097 90.3071 201.977 91.0374 201.774 92.091C201.558 93.2404 201.378 93.9229 201.258 94.1264C201.15 94.294 201.007 94.3778 200.839 94.3659C200.767 94.3659 200.647 94.3419 200.479 94.306C199.892 94.1743 198.191 94.0186 195.35 93.8391C194.727 93.8031 193.805 93.7313 192.582 93.6475C191.36 93.5517 190.449 93.4918 189.826 93.4559C189.562 93.432 189.43 93.3003 189.454 93.0249C189.526 91.9952 189.67 90.4388 189.91 88.3675C190.149 86.2961 190.293 84.7516 190.365 83.722C190.437 82.6684 190.509 80.7048 190.605 77.8313C190.629 77.089 190.653 75.9875 190.689 74.5148V74.3233C190.689 74.1078 190.797 74.012 191.012 74.0239C191.611 74.0599 192.498 74.1437 193.697 74.2514C194.895 74.3592 195.782 74.443 196.381 74.4789C196.968 74.5148 197.855 74.5508 199.041 74.5986C200.228 74.6346 201.115 74.6825 201.702 74.7184C202.121 74.7423 202.349 74.9459 202.397 75.305C202.421 75.5206 202.445 76.1671 202.457 77.2566C202.469 78.3342 202.469 78.9927 202.457 79.2202C202.445 79.4117 202.361 79.5075 202.193 79.4955C202.145 79.4955 202.061 79.4955 201.941 79.4716C199.808 79.1364 197.891 78.9089 196.189 78.7891C195.758 78.7652 195.494 78.861 195.386 79.0885C195.338 79.1962 195.302 79.5554 195.255 80.1541C195.219 80.7886 195.267 81.2077 195.41 81.4112C195.542 81.6028 195.794 81.6986 196.177 81.7225C196.261 81.7225 196.417 81.7225 196.645 81.7225C196.884 81.7225 197.076 81.7225 197.22 81.7465C198.238 81.8063 199.257 81.8422 200.3 81.8542C200.384 81.8542 200.611 81.8542 200.971 81.8303C201.246 81.8183 201.462 81.8063 201.63 81.8303C201.822 81.8303 201.917 81.95 201.893 82.1655C201.893 81.9739 201.786 82.6684 201.534 84.2727C201.426 85.0031 201.342 85.7454 201.294 86.4877C201.294 86.6673 201.162 86.7511 200.923 86.7391L199.844 86.5356C199.389 86.4518 198.346 86.356 196.717 86.2483L195.434 86.1644C195.099 86.1405 194.907 86.2243 194.835 86.4039C194.835 86.4518 194.799 86.7391 194.763 87.2659C194.715 87.9723 194.727 88.4273 194.799 88.6309C194.919 88.99 195.41 89.2295 196.309 89.3492C196.297 89.3492 196.884 89.3851 198.071 89.457C198.502 89.4809 199.137 89.4809 199.976 89.457C200.827 89.4211 201.45 89.4211 201.87 89.457C202.049 89.457 202.121 89.6366 202.109 89.9718L202.121 89.912Z" fill="black"/>
</g>
<defs>
<clipPath id="clip0_756_1394">
<rect width="132" height="113" fill="white" transform="translate(115 74)"/>
</clipPath>
</defs>
</svg>
